<?xml version="1.0" encoding="UTF-8" standalone="no"?>
<svg width="100%" height="100%" viewBox="0 0 512 512" version="1.1" xmlns="http://www.w3.org/2000/svg" xmlns:xlink="http://www.w3.org/1999/xlink" xml:space="preserve">
    <circle cx="256" cy="256" r="256" fill="none"/>
    <path d="M437.019,74.981C388.667,26.628,324.38,0,256,0S123.333,26.628,74.981,74.981C26.628,123.333,0,187.62,0,256
    s26.628,132.667,74.981,181.019C123.333,485.372,187.62,512,256,512s132.667-26.628,181.019-74.981
    C485.372,388.667,512,324.38,512,256S485.372,123.333,437.019,74.981z" fill="url(#paint0_linear)"/>
    <path d="M256,74.962c-99.934,0-181.038,81.104-181.038,181.038S156.066,437.038,256,437.038
    S437.038,355.934,437.038,256S355.934,74.962,256,74.962z M256,382.887c-70.104,0-126.887-56.783-126.887-126.887
    S185.896,129.113,256,129.113S382.887,185.896,382.887,256S326.104,382.887,256,382.887z" fill="white"/>
    <defs>
        <linearGradient id="paint0_linear" x1="0" y1="256" x2="512" y2="256" gradientUnits="userSpaceOnUse">
            <stop offset="0" stop-color="#1952E4"/>
            <stop offset="1" stop-color="#8841E4"/>
        </linearGradient>
    </defs>
</svg> 